<?xml version="1.0" encoding="utf-8"?>
<!-- Generator: Adobe Illustrator 28.1.0, SVG Export Plug-In . SVG Version: 6.00 Build 0)  -->
<svg version="1.1" id="Livello_1" xmlns="http://www.w3.org/2000/svg" xmlns:xlink="http://www.w3.org/1999/xlink" x="0px" y="0px"
	 viewBox="0 0 172 42" style="enable-background:new 0 0 172 42;" xml:space="preserve">
<style type="text/css">
	.st0{fill:#CC0000;}
</style>
<path d="M139.71,36.12c0.18,0.39,0.03,0.85-0.35,1.06c-0.06,0.03-0.12,0.07-0.19,0.1c-0.51,0.27-1.15,0.53-1.92,0.76
	c-0.78,0.23-1.67,0.35-2.68,0.35c-0.94,0-1.81-0.18-2.6-0.55c-0.8-0.36-1.43-0.9-1.9-1.61c-0.47-0.71-0.71-1.56-0.71-2.54V11.33
	h-3.2c-0.45,0-0.81-0.36-0.81-0.81s0.36-0.81,0.81-0.81h3.2v-8.9c0-0.45,0.36-0.81,0.81-0.81h0.22c0.45,0,0.81,0.36,0.81,0.81V9.7
	h5.86c0.45,0,0.81,0.36,0.81,0.81s-0.36,0.81-0.81,0.81h-5.86v22.1c0.07,1.06,0.47,1.86,1.19,2.41s1.55,0.82,2.49,0.82
	c1.19,0,2.21-0.21,3.06-0.62c0.25-0.12,0.47-0.23,0.65-0.32c0.41-0.21,0.91-0.03,1.1,0.38L139.71,36.12z"/>
<path d="M48.87,38.39c-2.17,0-4.18-0.37-6.05-1.11c-1.66-0.66-3.14-1.64-4.44-2.95c-0.28-0.28-0.3-0.73-0.06-1.04l0.03-0.04
	c0.28-0.37,0.82-0.44,1.17-0.13c1.31,1.15,2.66,2.02,4.02,2.62c1.59,0.69,3.34,1.03,5.26,1.03c2.64,0,4.77-0.56,6.4-1.68
	s2.44-2.67,2.44-4.65c0-1.3-0.37-2.31-1.11-3.03c-0.74-0.72-1.81-1.31-3.2-1.76s-3.08-0.91-5.07-1.38c-1.95-0.51-3.57-1-4.85-1.49
	c-1.28-0.49-2.25-1.14-2.9-1.98c-0.65-0.83-0.98-1.99-0.98-3.46c0-1.88,0.46-3.4,1.38-4.57c0.92-1.17,2.15-2.05,3.69-2.62
	c1.54-0.58,3.23-0.87,5.07-0.87c2.24,0,4.17,0.38,5.8,1.14c1.32,0.62,2.34,1.36,3.07,2.24c0.28,0.34,0.22,0.84-0.11,1.12
	c-0.33,0.29-0.83,0.25-1.12-0.07c-0.75-0.82-1.74-1.47-2.95-1.94c-1.5-0.58-3.14-0.87-4.91-0.87c-1.45,0-2.78,0.22-4.01,0.65
	c-1.23,0.43-2.22,1.09-2.98,1.98c-0.76,0.88-1.14,2.07-1.14,3.54c0,1.19,0.27,2.11,0.81,2.76c0.54,0.65,1.36,1.16,2.44,1.54
	c1.08,0.38,2.46,0.78,4.12,1.22c2.2,0.54,4.11,1.09,5.72,1.65c1.61,0.56,2.85,1.29,3.71,2.19c0.87,0.9,1.3,2.17,1.3,3.79
	c0,2.53-0.97,4.52-2.9,5.98C54.61,37.66,52.05,38.39,48.87,38.39"/>
<path d="M84.55,29.85c0,0.32-0.08,0.69-0.24,1.11c-0.16,0.41-0.41,0.84-0.73,1.27c-0.94,1.37-2.34,2.48-4.2,3.32
	c-1.86,0.85-3.91,1.27-6.16,1.27c-1.45,0-2.76-0.32-3.93-0.97c-1.18-0.65-2.1-1.51-2.77-2.59s-1-2.27-1-3.56
	c0-1.98,0.92-3.57,2.77-4.78c1.84-1.21,4.27-1.81,7.27-1.81c1.59,0,3.14,0.14,4.64,0.4c1.5,0.27,2.96,0.68,4.37,1.22v5.12H84.55z
	 M86.3,37.78c0.74,0.13,1.06-0.25,1.06-0.93c0-0.32-0.21-0.59-0.5-0.74c-0.09-0.05-0.17-0.11-0.23-0.19
	c-0.16-0.2-0.24-0.5-0.24-0.89V20.2c0-3.36-0.96-6.02-2.87-7.98c-1.92-1.97-4.5-2.95-7.75-2.95c-1.55,0-3.16,0.31-4.83,0.92
	c-1.6,0.59-3.29,1.49-5.07,2.69c-0.11,0.07-0.14,0.22-0.06,0.32l0.66,0.97c0.07,0.11,0.21,0.13,0.32,0.06
	c1.53-1.05,3.03-1.86,4.5-2.42c1.54-0.58,2.99-0.87,4.37-0.87c2.71,0,4.87,0.84,6.48,2.52c1.61,1.68,2.41,3.9,2.41,6.64v2.98
	c-1.3-0.47-2.77-0.84-4.39-1.11c-1.63-0.27-3.2-0.41-4.72-0.41c-2.31,0-4.34,0.35-6.07,1.05c-1.74,0.7-3.11,1.66-4.12,2.87
	c-1.01,1.21-1.52,2.64-1.52,4.3c0,1.59,0.41,3.04,1.22,4.35c0.81,1.32,1.93,2.35,3.34,3.11c1.41,0.76,2.98,1.13,4.72,1.13
	c2.35,0,4.55-0.46,6.62-1.38c2.06-0.92,3.74-2.21,5.04-3.88v2.44c0.04,0.51,0.2,0.98,0.49,1.41C85.43,37.41,85.82,37.67,86.3,37.78"
	/>
<path d="M145.23,23.37c0.24-6.71,5.73-12.15,12.45-12.32c5.41-0.14,10.09,3.07,12.1,7.71l-24.02,8.74
	C145.37,26.2,145.18,24.81,145.23,23.37 M158.03,36.65c-5.26,0-9.78-3.18-11.75-7.72l24.02-8.74l1.7-0.62
	c-0.15-0.49-0.32-0.96-0.52-1.42c-2.26-5.32-7.57-9.02-13.74-8.9c-7.78,0.15-14.13,6.48-14.3,14.26c-0.04,1.61,0.19,3.16,0.63,4.61
	c0.15,0.49,0.32,0.96,0.52,1.42c2.22,5.23,7.4,8.9,13.45,8.9c5.08,0,9.56-2.6,12.17-6.54c0.31-0.47,0.09-1.1-0.43-1.3l-0.05-0.02
	c-0.38-0.14-0.81,0-1.03,0.33C166.39,34.38,162.47,36.65,158.03,36.65"/>
<path d="M107.33,36.66c-7.08,0-12.82-5.74-12.82-12.82s5.74-12.83,12.82-12.83c7.08,0,12.82,5.74,12.82,12.83
	C120.15,30.91,114.41,36.66,107.33,36.66 M107.33,9.27c-8.04,0-14.56,6.52-14.56,14.56s6.52,14.56,14.56,14.56
	s14.56-6.52,14.56-14.56C121.89,15.79,115.37,9.27,107.33,9.27"/>
<path class="st0" d="M33.13,18.8c0.06-0.02,0.05-0.09,0.03-0.15c-0.01-0.04-0.02-0.07-0.03-0.11c-0.06-0.2-0.12-0.4-0.19-0.6
	c-0.03-0.09-0.06-0.18-0.09-0.26c-0.06-0.18-0.13-0.36-0.2-0.54c-0.04-0.1-0.08-0.2-0.11-0.3c-0.07-0.17-0.13-0.33-0.21-0.5
	c-0.05-0.11-0.09-0.22-0.14-0.32c-2.68-5.87-8.3-9.97-14.86-10.22c-0.21-0.01-0.42-0.01-0.64-0.01c-0.21,0-0.43,0-0.64,0.01
	C9.42,6.03,3.7,9.84,0.76,15.36c-0.78,1.52-0.22,2.63,1.39,3.21c1.48,0.53,2.75,0.08,3.33-1.08c0.07-0.12,0.14-0.24,0.21-0.36
	c0-0.01,0.01-0.01,0.01-0.02c0.08-0.13,0.14-0.23,0.21-0.33c0.34-0.52,0.71-1.01,1.12-1.47c0.35-0.4,0.73-0.78,1.14-1.14
	c2.27-2.01,5.26-3.22,8.53-3.22s6.25,1.22,8.53,3.22c0.4,0.35,0.78,0.74,1.14,1.14c0.69,0.78,1.28,1.64,1.76,2.56
	c0.13,0.25,0.26,0.51,0.37,0.77l-0.81,0.29l-0.81,0.29l-3.34,1.21l-5.59,2.02l-1.2,0.44l-0.06,0.02l-0.04,0.01l-1.22,0.44
	l-0.66,0.24l-0.6,0.22l-1.26,0.46L5.93,26.8c0.08,0.28,0.16,0.55,0.26,0.81c0.1,0.27,0.21,0.54,0.32,0.8l3.35-1.21l5.57-2.02
	l1.22-0.44l0.04-0.02l0.05-0.02l1.21-0.44l0.66-0.24l0.6-0.22l1.26-0.46l6.99-2.53l0.81-0.29l0.81-0.29l0.81-0.29l0.81-0.29
	c-0.08-0.28-0.17-0.55-0.27-0.82s-0.2-0.53-0.32-0.79c-0.11-0.26-0.23-0.52-0.36-0.78c-0.2-0.39-0.41-0.77-0.64-1.14
	c-1.19-1.91-2.81-3.53-4.72-4.72c-2.23-1.39-4.87-2.19-7.69-2.19s-5.46,0.8-7.7,2.19c-1.91,1.19-3.53,2.81-4.72,4.72
	c-0.08,0.12-0.15,0.25-0.22,0.38l0,0c0,0,0,0,0,0.01c-0.4,0.75-1.22,0.46-1.22,0.46s-0.81-0.3-0.41-1.06l0,0l0,0
	c1.98-3.57,5.26-6.31,9.2-7.61c1.42-0.47,2.92-0.74,4.49-0.8c0.2-0.01,0.4-0.01,0.6-0.01s0.4,0,0.6,0.01
	c1.56,0.06,3.06,0.33,4.48,0.8c-0.06-0.05-0.12-0.09-0.19-0.14c4.56,1.28,8.32,4.31,10.43,8.27c0.06,0.1,0.11,0.21,0.16,0.31
	c0.08,0.15,0.15,0.3,0.22,0.46c0.05,0.1,0.09,0.19,0.13,0.29c0.07,0.16,0.15,0.33,0.21,0.5c0.03,0.09,0.07,0.17,0.1,0.26
	c0.05,0.13,0.1,0.26,0.14,0.39l0,0C33.03,18.75,33.06,18.82,33.13,18.8"/>
<path class="st0" d="M16.7,41.03c-0.07,0-0.15,0-0.22,0C16.55,41.03,16.62,41.03,16.7,41.03c0.07,0,0.15,0,0.22,0
	C16.85,41.03,16.77,41.03,16.7,41.03 M31.24,29.11L31.24,29.11c-1.62-0.59-2.62-0.05-3.54,1.45c-0.01,0.02-0.03,0.04-0.04,0.06
	c-0.38,0.62-0.82,1.2-1.3,1.75c-0.35,0.4-0.73,0.78-1.14,1.14c-1.27,1.12-2.77,2-4.41,2.55c-1.29,0.43-2.68,0.67-4.11,0.67
	c-1.44,0-2.82-0.23-4.12-0.67c-1.64-0.56-3.14-1.43-4.41-2.55c-0.4-0.35-0.78-0.73-1.14-1.14c-0.69-0.78-1.28-1.64-1.76-2.56
	c-0.13-0.26-0.26-0.52-0.37-0.78c-0.12-0.26-0.22-0.53-0.32-0.8c-0.1-0.27-0.18-0.54-0.26-0.81c-0.08-0.27-0.15-0.55-0.21-0.83
	c-0.19-0.88-0.29-1.8-0.29-2.73c0-0.94,0.1-1.85,0.29-2.74l-0.82-0.29l-0.81-0.3C2.23,21.6,2.1,22.71,2.1,23.86
	c0,1.14,0.13,2.26,0.38,3.33c0.07,0.28,0.14,0.56,0.22,0.83c0.08,0.27,0.17,0.54,0.27,0.81c0.1,0.27,0.2,0.54,0.32,0.8
	c0.11,0.27,0.24,0.53,0.37,0.79c0.2,0.39,0.41,0.77,0.64,1.14c1.19,1.91,2.81,3.53,4.72,4.72c0.61,0.38,1.24,0.71,1.9,0.99
	c1.78,0.77,3.73,1.19,5.79,1.19s4.01-0.42,5.79-1.19c0.66-0.28,1.3-0.62,1.9-0.99c1.91-1.19,3.53-2.81,4.72-4.72
	c0.08-0.13,0.15-0.26,0.23-0.38h0.01l0,0c0.45-0.74,1.22-0.46,1.22-0.46s0.86,0.3,0.41,1.06c-0.01,0.02-0.02,0.03-0.03,0.05
	c-1.65,2.96-4.2,5.35-7.27,6.81c-0.62,0.29-1.25,0.54-1.9,0.76c-1.33,0.43-2.73,0.7-4.18,0.78c-0.09,0-0.18,0.01-0.27,0.01
	c-0.21,0.01-0.42,0.01-0.64,0.01c-0.21,0-0.42,0-0.64-0.01c-0.09,0-0.18-0.01-0.26-0.01c-1.38-0.07-2.72-0.29-4-0.65
	c-0.75-0.21-1.47-0.47-2.17-0.77c-3.57-1.53-6.49-4.19-8.26-7.5c-0.06-0.1-0.11-0.21-0.16-0.31c-0.08-0.15-0.15-0.31-0.23-0.46
	C0.93,30.4,0.89,30.3,0.85,30.2c-0.07-0.17-0.15-0.34-0.21-0.51c-0.04-0.09-0.07-0.17-0.1-0.26c-0.07-0.18-0.13-0.36-0.2-0.54
	c-0.03-0.07-0.05-0.15-0.08-0.22c-0.05-0.16-0.1-0.33-0.15-0.5l0,0c-0.01-0.02-0.03-0.1-0.08-0.08C0,28.06,0,28.11,0,28.13
	c0.01,0.04,0.02,0.09,0.03,0.13c0.05,0.21,0.11,0.43,0.17,0.64c0.02,0.08,0.04,0.15,0.06,0.23c0.06,0.2,0.12,0.39,0.18,0.59
	c0.03,0.09,0.06,0.18,0.09,0.26c0.06,0.19,0.13,0.37,0.2,0.55c0.04,0.1,0.07,0.2,0.11,0.3c0.07,0.17,0.14,0.34,0.21,0.51
	c0.05,0.11,0.09,0.22,0.14,0.32c1.64,3.57,4.36,6.49,7.72,8.29c2.16,1.15,4.58,1.84,7.14,1.94c0.21,0.01,0.42,0.01,0.64,0.01
	c0.21,0,0.43,0,0.64-0.01c2.58-0.09,5.02-0.72,7.21-1.78c3.45-1.67,6.28-4.4,8.08-7.76C33.46,30.83,32.86,29.69,31.24,29.11"/>
</svg>
